<?xml version="1.0" standalone="no"?>
<!DOCTYPE svg PUBLIC "-//W3C//DTD SVG 20010904//EN"
 "http://www.w3.org/TR/2001/REC-SVG-20010904/DTD/svg10.dtd">
<svg version="1.0" xmlns="http://www.w3.org/2000/svg"
 width="279.000000pt" height="279.000000pt" viewBox="0 0 279.000000 279.000000"
 preserveAspectRatio="xMidYMid meet">
<metadata>
Created by potrace 1.11, written by Peter Selinger 2001-2013
</metadata>
<g transform="translate(0.000000,279.000000) scale(0.100000,-0.100000)"
fill="#000000" stroke="none">
<path d="M1195 2780 c-3 -5 -26 -10 -50 -10 -24 0 -47 -4 -50 -10 -3 -5 -19
-10 -35 -10 -29 0 -64 -13 -143 -51 -22 -11 -47 -19 -57 -19 -22 0 -147 -65
-176 -91 -11 -10 -25 -19 -31 -19 -5 0 -18 -9 -28 -20 -10 -11 -24 -20 -32
-20 -8 0 -36 -20 -62 -45 -26 -25 -52 -45 -57 -45 -11 0 -124 -112 -124 -124
0 -5 -20 -31 -45 -57 -25 -26 -45 -55 -45 -62 0 -8 -6 -20 -14 -26 -8 -7 -29
-40 -46 -74 -18 -34 -41 -71 -51 -83 -11 -11 -19 -28 -19 -38 0 -9 -9 -36 -20
-58 -11 -23 -20 -50 -20 -59 0 -10 -4 -21 -10 -24 -5 -3 -10 -21 -10 -39 0
-18 -7 -41 -15 -52 -8 -10 -15 -33 -15 -51 0 -17 -4 -35 -10 -38 -6 -3 -10
-52 -10 -111 0 -63 -4 -104 -10 -104 -5 0 -10 -20 -10 -45 0 -25 5 -45 10 -45
6 0 10 -41 10 -104 0 -59 4 -108 10 -111 6 -3 10 -21 10 -38 0 -18 7 -41 15
-51 8 -11 15 -34 15 -52 0 -18 4 -36 10 -39 5 -3 10 -14 10 -24 0 -9 9 -36 20
-59 11 -22 20 -49 20 -58 0 -10 8 -27 19 -38 10 -12 33 -49 51 -83 17 -34 38
-67 46 -74 8 -6 14 -18 14 -26 0 -7 20 -36 45 -62 25 -26 45 -52 45 -57 0 -12
113 -124 124 -124 5 0 31 -20 57 -45 26 -25 54 -45 62 -45 8 0 22 -9 32 -20
10 -11 23 -20 28 -20 6 0 20 -9 31 -19 29 -26 154 -91 176 -91 10 0 35 -8 57
-19 79 -38 114 -51 143 -51 16 0 32 -4 35 -10 8 -14 592 -14 600 0 3 5 24 10
47 10 23 0 60 10 87 24 25 13 66 29 91 36 58 16 145 57 159 74 7 8 33 23 60
35 26 11 54 27 61 36 7 8 18 15 24 15 6 0 36 25 66 55 30 30 60 55 67 55 7 0
13 5 13 11 0 6 36 48 80 93 44 45 80 87 80 93 0 5 9 18 20 28 11 10 20 24 20
31 0 7 10 25 23 41 29 35 100 182 120 248 9 28 25 75 36 105 12 30 21 76 21
102 0 26 5 50 10 53 6 4 10 88 10 220 0 132 -4 216 -10 220 -5 3 -10 27 -10
53 0 26 -9 72 -21 102 -11 30 -27 78 -36 105 -20 66 -91 213 -120 248 -13 16
-23 34 -23 41 0 7 -9 21 -20 31 -11 10 -20 23 -20 28 0 6 -36 48 -80 93 -44
45 -80 87 -80 93 0 6 -6 11 -13 11 -7 0 -37 25 -67 55 -30 30 -60 55 -66 55
-6 0 -17 7 -24 15 -7 9 -35 25 -61 36 -27 12 -53 27 -60 35 -11 14 -86 51
-149 73 -19 7 -57 22 -85 33 -27 12 -70 23 -95 25 -25 3 -49 9 -54 14 -6 5
-25 9 -42 9 -18 0 -36 5 -39 10 -4 6 -85 10 -210 10 -125 0 -206 -4 -210 -10z"/>
</g>
</svg>
